<mxfile host="app.diagrams.net" modified="2022-07-02T06:03:36.597Z" agent="5.0 (Windows NT 10.0; Win64; x64) AppleWebKit/537.36 (KHTML, like Gecko) Chrome/103.0.0.0 Safari/537.36" etag="HhCdjuX49VXcQ33OEl8y" version="20.0.4" type="github">
  <diagram id="DwsS2J723ZOZaTvMe3t2" name="Page-1">
    <mxGraphModel dx="1065" dy="1880" grid="1" gridSize="10" guides="1" tooltips="1" connect="1" arrows="1" fold="1" page="1" pageScale="1" pageWidth="850" pageHeight="1100" math="0" shadow="0">
      <root>
        <mxCell id="0" />
        <mxCell id="1" parent="0" />
        <mxCell id="Zs7K6-w_bu5Q6USDmY5A-47" value="Rover Drivetrain" style="rounded=0;whiteSpace=wrap;html=1;fontColor=#000000;verticalAlign=top;" vertex="1" parent="1">
          <mxGeometry x="1720" y="220" width="370" height="400" as="geometry" />
        </mxCell>
        <mxCell id="Zs7K6-w_bu5Q6USDmY5A-4" value="Rover Arm" style="rounded=0;whiteSpace=wrap;html=1;verticalAlign=top;" vertex="1" parent="1">
          <mxGeometry x="1670" y="-385" width="440" height="575" as="geometry" />
        </mxCell>
        <mxCell id="DejExufyzVn6_CYJfOM6-51" style="edgeStyle=orthogonalEdgeStyle;rounded=0;orthogonalLoop=1;jettySize=auto;html=1;entryX=0;entryY=0.5;entryDx=0;entryDy=0;startArrow=none;startFill=0;endArrow=classic;endFill=1;strokeColor=#000000;" parent="1" source="DejExufyzVn6_CYJfOM6-2" target="DejExufyzVn6_CYJfOM6-5" edge="1">
          <mxGeometry relative="1" as="geometry" />
        </mxCell>
        <mxCell id="DejExufyzVn6_CYJfOM6-2" value="Stepper Motor Driver 1" style="whiteSpace=wrap;html=1;rounded=0;" parent="1" vertex="1">
          <mxGeometry x="1750" y="85" width="120" height="60" as="geometry" />
        </mxCell>
        <mxCell id="kzE1yxQLpQRsYS8nyMCZ-12" value="" style="edgeStyle=orthogonalEdgeStyle;rounded=0;orthogonalLoop=1;jettySize=auto;html=1;fontColor=#FF0000;strokeColor=#FF0000;" parent="1" source="kzE1yxQLpQRsYS8nyMCZ-1" target="kzE1yxQLpQRsYS8nyMCZ-11" edge="1">
          <mxGeometry relative="1" as="geometry" />
        </mxCell>
        <mxCell id="kzE1yxQLpQRsYS8nyMCZ-1" value="7s, 6p Li-ion Battery" style="pointerEvents=1;verticalLabelPosition=bottom;shadow=0;dashed=0;align=center;html=1;verticalAlign=top;shape=mxgraph.electrical.miscellaneous.batteryStack;whiteSpace=wrap;" parent="1" vertex="1">
          <mxGeometry x="130" y="90" width="100" height="60" as="geometry" />
        </mxCell>
        <mxCell id="kzE1yxQLpQRsYS8nyMCZ-4" value="BMS: 100A" style="whiteSpace=wrap;html=1;verticalAlign=middle;shadow=0;dashed=0;" parent="1" vertex="1">
          <mxGeometry x="120" y="-10" width="120" height="60" as="geometry" />
        </mxCell>
        <mxCell id="kzE1yxQLpQRsYS8nyMCZ-9" value="" style="endArrow=none;html=1;rounded=0;exitX=0;exitY=0.5;exitDx=0;exitDy=0;entryX=0;entryY=0.5;entryDx=0;entryDy=0;" parent="1" source="kzE1yxQLpQRsYS8nyMCZ-1" target="kzE1yxQLpQRsYS8nyMCZ-4" edge="1">
          <mxGeometry width="50" height="50" relative="1" as="geometry">
            <mxPoint x="380" y="240" as="sourcePoint" />
            <mxPoint x="430" y="190" as="targetPoint" />
            <Array as="points">
              <mxPoint x="70" y="120" />
              <mxPoint x="70" y="20" />
            </Array>
          </mxGeometry>
        </mxCell>
        <mxCell id="kzE1yxQLpQRsYS8nyMCZ-10" value="" style="endArrow=none;html=1;rounded=0;entryX=1;entryY=0.5;entryDx=0;entryDy=0;exitX=1;exitY=0.5;exitDx=0;exitDy=0;" parent="1" source="kzE1yxQLpQRsYS8nyMCZ-1" target="kzE1yxQLpQRsYS8nyMCZ-4" edge="1">
          <mxGeometry width="50" height="50" relative="1" as="geometry">
            <mxPoint x="380" y="240" as="sourcePoint" />
            <mxPoint x="430" y="190" as="targetPoint" />
            <Array as="points">
              <mxPoint x="290" y="120" />
              <mxPoint x="290" y="20" />
            </Array>
          </mxGeometry>
        </mxCell>
        <mxCell id="kzE1yxQLpQRsYS8nyMCZ-16" value="" style="edgeStyle=orthogonalEdgeStyle;rounded=0;orthogonalLoop=1;jettySize=auto;html=1;strokeColor=#FF0000;" parent="1" source="kzE1yxQLpQRsYS8nyMCZ-11" target="kzE1yxQLpQRsYS8nyMCZ-15" edge="1">
          <mxGeometry relative="1" as="geometry" />
        </mxCell>
        <mxCell id="kzE1yxQLpQRsYS8nyMCZ-11" value="Electronic Fuse" style="whiteSpace=wrap;verticalAlign=middle;shadow=0;dashed=0;fillColor=#f8cecc;strokeColor=#b85450;" parent="1" vertex="1">
          <mxGeometry x="400" y="100" width="120" height="40" as="geometry" />
        </mxCell>
        <mxCell id="kzE1yxQLpQRsYS8nyMCZ-19" value="" style="edgeStyle=orthogonalEdgeStyle;rounded=0;orthogonalLoop=1;jettySize=auto;html=1;strokeColor=#FF0000;" parent="1" source="kzE1yxQLpQRsYS8nyMCZ-15" target="kzE1yxQLpQRsYS8nyMCZ-18" edge="1">
          <mxGeometry relative="1" as="geometry" />
        </mxCell>
        <mxCell id="kzE1yxQLpQRsYS8nyMCZ-15" value="Kill Switch" style="whiteSpace=wrap;html=1;verticalAlign=middle;shadow=0;dashed=0;fillColor=#f8cecc;strokeColor=#b85450;" parent="1" vertex="1">
          <mxGeometry x="600" y="90" width="120" height="60" as="geometry" />
        </mxCell>
        <mxCell id="kzE1yxQLpQRsYS8nyMCZ-18" value="Power Distribution System (PDU)" style="whiteSpace=wrap;html=1;shadow=0;dashed=0;verticalAlign=top;" parent="1" vertex="1">
          <mxGeometry x="800" y="-20" width="270" height="280" as="geometry" />
        </mxCell>
        <mxCell id="DejExufyzVn6_CYJfOM6-43" style="edgeStyle=orthogonalEdgeStyle;rounded=0;orthogonalLoop=1;jettySize=auto;html=1;entryX=0;entryY=0.5;entryDx=0;entryDy=0;startArrow=none;startFill=0;endArrow=none;endFill=0;strokeColor=#FF0000;" parent="1" source="kzE1yxQLpQRsYS8nyMCZ-22" target="DejExufyzVn6_CYJfOM6-39" edge="1">
          <mxGeometry relative="1" as="geometry" />
        </mxCell>
        <mxCell id="kzE1yxQLpQRsYS8nyMCZ-22" value="Buck Converter 1: 7v" style="rounded=0;whiteSpace=wrap;html=1;" parent="1" vertex="1">
          <mxGeometry x="930" y="20" width="120" height="60" as="geometry" />
        </mxCell>
        <mxCell id="DejExufyzVn6_CYJfOM6-46" style="edgeStyle=orthogonalEdgeStyle;rounded=0;orthogonalLoop=1;jettySize=auto;html=1;exitX=1;exitY=0.75;exitDx=0;exitDy=0;entryX=0;entryY=0.5;entryDx=0;entryDy=0;startArrow=none;startFill=0;endArrow=none;endFill=0;strokeColor=#FF0000;" parent="1" source="kzE1yxQLpQRsYS8nyMCZ-23" target="DejExufyzVn6_CYJfOM6-41" edge="1">
          <mxGeometry relative="1" as="geometry" />
        </mxCell>
        <mxCell id="kzE1yxQLpQRsYS8nyMCZ-23" value="Buck Converter 2: 12V, 48A" style="rounded=0;whiteSpace=wrap;html=1;" parent="1" vertex="1">
          <mxGeometry x="930" y="100" width="120" height="60" as="geometry" />
        </mxCell>
        <mxCell id="DejExufyzVn6_CYJfOM6-47" style="edgeStyle=orthogonalEdgeStyle;rounded=0;orthogonalLoop=1;jettySize=auto;html=1;startArrow=none;startFill=0;endArrow=none;endFill=0;strokeColor=#FF0000;" parent="1" source="kzE1yxQLpQRsYS8nyMCZ-24" target="DejExufyzVn6_CYJfOM6-42" edge="1">
          <mxGeometry relative="1" as="geometry" />
        </mxCell>
        <mxCell id="kzE1yxQLpQRsYS8nyMCZ-24" value="Buck Converter 3: 12V, 48A" style="rounded=0;whiteSpace=wrap;html=1;" parent="1" vertex="1">
          <mxGeometry x="930" y="180" width="120" height="60" as="geometry" />
        </mxCell>
        <mxCell id="DejExufyzVn6_CYJfOM6-5" value="Stepper Motor 1:&amp;nbsp; Irms 5.5A" style="whiteSpace=wrap;html=1;rounded=0;" parent="1" vertex="1">
          <mxGeometry x="1950" y="85" width="120" height="60" as="geometry" />
        </mxCell>
        <mxCell id="DejExufyzVn6_CYJfOM6-33" style="edgeStyle=orthogonalEdgeStyle;rounded=0;orthogonalLoop=1;jettySize=auto;html=1;entryX=1;entryY=0.5;entryDx=0;entryDy=0;startArrow=none;startFill=0;strokeColor=#0000FF;" parent="1" source="DejExufyzVn6_CYJfOM6-29" target="kzE1yxQLpQRsYS8nyMCZ-18" edge="1">
          <mxGeometry relative="1" as="geometry" />
        </mxCell>
        <mxCell id="DejExufyzVn6_CYJfOM6-37" style="edgeStyle=orthogonalEdgeStyle;rounded=0;orthogonalLoop=1;jettySize=auto;html=1;entryX=0.5;entryY=0;entryDx=0;entryDy=0;startArrow=none;startFill=0;strokeColor=#0000FF;" parent="1" source="DejExufyzVn6_CYJfOM6-29" target="DejExufyzVn6_CYJfOM6-34" edge="1">
          <mxGeometry relative="1" as="geometry" />
        </mxCell>
        <mxCell id="Zs7K6-w_bu5Q6USDmY5A-42" style="edgeStyle=orthogonalEdgeStyle;rounded=0;orthogonalLoop=1;jettySize=auto;html=1;entryX=0;entryY=0.5;entryDx=0;entryDy=0;fontColor=#FF0000;strokeColor=#0000FF;" edge="1" parent="1" source="DejExufyzVn6_CYJfOM6-29" target="Zs7K6-w_bu5Q6USDmY5A-41">
          <mxGeometry relative="1" as="geometry">
            <Array as="points">
              <mxPoint x="1450" y="-55" />
              <mxPoint x="1450" y="420" />
            </Array>
          </mxGeometry>
        </mxCell>
        <mxCell id="DejExufyzVn6_CYJfOM6-29" value="I2C" style="text;html=1;strokeColor=#6c8ebf;fillColor=#dae8fc;align=center;verticalAlign=middle;whiteSpace=wrap;rounded=0;" parent="1" vertex="1">
          <mxGeometry x="1290" y="-70" width="60" height="30" as="geometry" />
        </mxCell>
        <mxCell id="DejExufyzVn6_CYJfOM6-38" style="edgeStyle=orthogonalEdgeStyle;rounded=0;orthogonalLoop=1;jettySize=auto;html=1;entryX=0.5;entryY=0;entryDx=0;entryDy=0;startArrow=none;startFill=0;strokeColor=#0000FF;endArrow=none;endFill=0;" parent="1" source="DejExufyzVn6_CYJfOM6-30" target="DejExufyzVn6_CYJfOM6-29" edge="1">
          <mxGeometry relative="1" as="geometry" />
        </mxCell>
        <mxCell id="DejExufyzVn6_CYJfOM6-30" value="Raspberry Pi" style="whiteSpace=wrap;html=1;" parent="1" vertex="1">
          <mxGeometry x="1260" y="-195" width="120" height="60" as="geometry" />
        </mxCell>
        <mxCell id="DejExufyzVn6_CYJfOM6-36" style="edgeStyle=orthogonalEdgeStyle;rounded=0;orthogonalLoop=1;jettySize=auto;html=1;startArrow=none;startFill=0;strokeColor=#000000;" parent="1" source="DejExufyzVn6_CYJfOM6-34" target="DejExufyzVn6_CYJfOM6-2" edge="1">
          <mxGeometry relative="1" as="geometry">
            <Array as="points">
              <mxPoint x="1530" y="115" />
            </Array>
          </mxGeometry>
        </mxCell>
        <mxCell id="DejExufyzVn6_CYJfOM6-53" value="" style="edgeStyle=orthogonalEdgeStyle;rounded=0;orthogonalLoop=1;jettySize=auto;html=1;startArrow=none;startFill=0;endArrow=classic;endFill=1;strokeColor=#000000;" parent="1" source="DejExufyzVn6_CYJfOM6-34" target="DejExufyzVn6_CYJfOM6-52" edge="1">
          <mxGeometry relative="1" as="geometry">
            <Array as="points">
              <mxPoint x="1630" y="35" />
              <mxPoint x="1630" y="35" />
            </Array>
          </mxGeometry>
        </mxCell>
        <mxCell id="DejExufyzVn6_CYJfOM6-58" value="" style="edgeStyle=orthogonalEdgeStyle;rounded=0;orthogonalLoop=1;jettySize=auto;html=1;startArrow=none;startFill=0;endArrow=classic;endFill=1;strokeColor=#000000;" parent="1" source="DejExufyzVn6_CYJfOM6-34" target="DejExufyzVn6_CYJfOM6-57" edge="1">
          <mxGeometry relative="1" as="geometry">
            <Array as="points">
              <mxPoint x="1590" y="-50" />
            </Array>
          </mxGeometry>
        </mxCell>
        <mxCell id="DejExufyzVn6_CYJfOM6-64" style="edgeStyle=orthogonalEdgeStyle;rounded=0;orthogonalLoop=1;jettySize=auto;html=1;entryX=0;entryY=0.5;entryDx=0;entryDy=0;startArrow=none;startFill=0;endArrow=classic;endFill=1;strokeColor=#000000;" parent="1" source="DejExufyzVn6_CYJfOM6-34" target="DejExufyzVn6_CYJfOM6-62" edge="1">
          <mxGeometry relative="1" as="geometry">
            <Array as="points">
              <mxPoint x="1580" y="-140" />
            </Array>
          </mxGeometry>
        </mxCell>
        <mxCell id="DejExufyzVn6_CYJfOM6-68" value="" style="edgeStyle=orthogonalEdgeStyle;rounded=0;orthogonalLoop=1;jettySize=auto;html=1;startArrow=none;startFill=0;endArrow=classic;endFill=1;strokeColor=#000000;" parent="1" source="DejExufyzVn6_CYJfOM6-34" target="DejExufyzVn6_CYJfOM6-67" edge="1">
          <mxGeometry relative="1" as="geometry">
            <Array as="points">
              <mxPoint x="1560" y="-300" />
            </Array>
          </mxGeometry>
        </mxCell>
        <mxCell id="Zs7K6-w_bu5Q6USDmY5A-15" style="edgeStyle=orthogonalEdgeStyle;rounded=0;orthogonalLoop=1;jettySize=auto;html=1;entryX=0;entryY=0.5;entryDx=0;entryDy=0;fontColor=#FF0000;strokeColor=#000000;" edge="1" parent="1" source="DejExufyzVn6_CYJfOM6-34" target="DejExufyzVn6_CYJfOM6-65">
          <mxGeometry relative="1" as="geometry">
            <Array as="points">
              <mxPoint x="1570" y="-220" />
            </Array>
          </mxGeometry>
        </mxCell>
        <mxCell id="DejExufyzVn6_CYJfOM6-34" value="Arduino Mega 1" style="whiteSpace=wrap;html=1;rounded=0;" parent="1" vertex="1">
          <mxGeometry x="1470" y="20" width="120" height="60" as="geometry" />
        </mxCell>
        <mxCell id="DejExufyzVn6_CYJfOM6-44" style="edgeStyle=orthogonalEdgeStyle;rounded=0;orthogonalLoop=1;jettySize=auto;html=1;entryX=0;entryY=0.5;entryDx=0;entryDy=0;startArrow=none;startFill=0;endArrow=classic;endFill=1;strokeColor=#FF0000;" parent="1" source="DejExufyzVn6_CYJfOM6-39" target="DejExufyzVn6_CYJfOM6-30" edge="1">
          <mxGeometry relative="1" as="geometry">
            <Array as="points">
              <mxPoint x="1130" y="-165" />
            </Array>
          </mxGeometry>
        </mxCell>
        <mxCell id="DejExufyzVn6_CYJfOM6-45" style="edgeStyle=orthogonalEdgeStyle;rounded=0;orthogonalLoop=1;jettySize=auto;html=1;entryX=0;entryY=0.5;entryDx=0;entryDy=0;startArrow=none;startFill=0;endArrow=classic;endFill=1;strokeColor=#FF0000;" parent="1" source="DejExufyzVn6_CYJfOM6-39" target="DejExufyzVn6_CYJfOM6-34" edge="1">
          <mxGeometry relative="1" as="geometry" />
        </mxCell>
        <mxCell id="DejExufyzVn6_CYJfOM6-39" value="7v" style="text;html=1;strokeColor=#b85450;fillColor=#f8cecc;align=center;verticalAlign=middle;whiteSpace=wrap;rounded=0;" parent="1" vertex="1">
          <mxGeometry x="1100" y="35" width="60" height="30" as="geometry" />
        </mxCell>
        <mxCell id="Zs7K6-w_bu5Q6USDmY5A-18" style="edgeStyle=orthogonalEdgeStyle;rounded=0;orthogonalLoop=1;jettySize=auto;html=1;entryX=0;entryY=0.5;entryDx=0;entryDy=0;fontColor=#FF0000;strokeColor=#FF0000;" edge="1" parent="1" source="DejExufyzVn6_CYJfOM6-41" target="Zs7K6-w_bu5Q6USDmY5A-11">
          <mxGeometry relative="1" as="geometry" />
        </mxCell>
        <mxCell id="DejExufyzVn6_CYJfOM6-41" value="12V BC 1" style="text;html=1;strokeColor=#b85450;fillColor=#f8cecc;align=center;verticalAlign=middle;whiteSpace=wrap;rounded=0;" parent="1" vertex="1">
          <mxGeometry x="1100" y="130" width="60" height="30" as="geometry" />
        </mxCell>
        <mxCell id="Zs7K6-w_bu5Q6USDmY5A-17" style="edgeStyle=orthogonalEdgeStyle;rounded=0;orthogonalLoop=1;jettySize=auto;html=1;entryX=0;entryY=0.5;entryDx=0;entryDy=0;fontColor=#FF0000;strokeColor=#FF0000;" edge="1" parent="1" source="DejExufyzVn6_CYJfOM6-42" target="Zs7K6-w_bu5Q6USDmY5A-16">
          <mxGeometry relative="1" as="geometry" />
        </mxCell>
        <mxCell id="DejExufyzVn6_CYJfOM6-42" value="12V BC 2" style="text;html=1;strokeColor=#b85450;fillColor=#f8cecc;align=center;verticalAlign=middle;whiteSpace=wrap;rounded=0;" parent="1" vertex="1">
          <mxGeometry x="1100" y="195" width="60" height="30" as="geometry" />
        </mxCell>
        <mxCell id="DejExufyzVn6_CYJfOM6-55" value="" style="edgeStyle=orthogonalEdgeStyle;rounded=0;orthogonalLoop=1;jettySize=auto;html=1;startArrow=none;startFill=0;endArrow=classic;endFill=1;strokeColor=#000000;" parent="1" source="DejExufyzVn6_CYJfOM6-52" target="DejExufyzVn6_CYJfOM6-54" edge="1">
          <mxGeometry relative="1" as="geometry" />
        </mxCell>
        <mxCell id="DejExufyzVn6_CYJfOM6-52" value="Stepper Motor Driver 2" style="whiteSpace=wrap;html=1;rounded=0;" parent="1" vertex="1">
          <mxGeometry x="1750" y="5" width="120" height="60" as="geometry" />
        </mxCell>
        <mxCell id="DejExufyzVn6_CYJfOM6-54" value="Stepper Motor 2:&amp;nbsp; Irms 2.1A" style="whiteSpace=wrap;html=1;rounded=0;" parent="1" vertex="1">
          <mxGeometry x="1950" y="5" width="120" height="60" as="geometry" />
        </mxCell>
        <mxCell id="DejExufyzVn6_CYJfOM6-60" value="" style="edgeStyle=orthogonalEdgeStyle;rounded=0;orthogonalLoop=1;jettySize=auto;html=1;startArrow=none;startFill=0;endArrow=classic;endFill=1;strokeColor=#000000;" parent="1" source="DejExufyzVn6_CYJfOM6-57" target="DejExufyzVn6_CYJfOM6-59" edge="1">
          <mxGeometry relative="1" as="geometry" />
        </mxCell>
        <mxCell id="DejExufyzVn6_CYJfOM6-57" value="Stepper Motor Driver 3" style="whiteSpace=wrap;html=1;rounded=0;" parent="1" vertex="1">
          <mxGeometry x="1750" y="-85" width="120" height="60" as="geometry" />
        </mxCell>
        <mxCell id="DejExufyzVn6_CYJfOM6-59" value="Stepper Motor 3: Irms 1.7A" style="whiteSpace=wrap;html=1;rounded=0;" parent="1" vertex="1">
          <mxGeometry x="1950" y="-85" width="120" height="60" as="geometry" />
        </mxCell>
        <mxCell id="DejExufyzVn6_CYJfOM6-70" value="" style="edgeStyle=orthogonalEdgeStyle;rounded=0;orthogonalLoop=1;jettySize=auto;html=1;startArrow=none;startFill=0;endArrow=classic;endFill=1;strokeColor=#000000;" parent="1" source="DejExufyzVn6_CYJfOM6-62" target="DejExufyzVn6_CYJfOM6-69" edge="1">
          <mxGeometry relative="1" as="geometry" />
        </mxCell>
        <mxCell id="DejExufyzVn6_CYJfOM6-62" value="DC Motor Driver 1" style="whiteSpace=wrap;html=1;rounded=0;" parent="1" vertex="1">
          <mxGeometry x="1750" y="-170" width="120" height="60" as="geometry" />
        </mxCell>
        <mxCell id="DejExufyzVn6_CYJfOM6-72" value="" style="edgeStyle=orthogonalEdgeStyle;rounded=0;orthogonalLoop=1;jettySize=auto;html=1;startArrow=none;startFill=0;endArrow=classic;endFill=1;strokeColor=#000000;" parent="1" source="DejExufyzVn6_CYJfOM6-65" target="DejExufyzVn6_CYJfOM6-71" edge="1">
          <mxGeometry relative="1" as="geometry" />
        </mxCell>
        <mxCell id="DejExufyzVn6_CYJfOM6-65" value="DC Motor Driver 2" style="whiteSpace=wrap;html=1;rounded=0;" parent="1" vertex="1">
          <mxGeometry x="1750" y="-250" width="120" height="60" as="geometry" />
        </mxCell>
        <mxCell id="DejExufyzVn6_CYJfOM6-74" value="" style="edgeStyle=orthogonalEdgeStyle;rounded=0;orthogonalLoop=1;jettySize=auto;html=1;startArrow=none;startFill=0;endArrow=classic;endFill=1;strokeColor=#000000;" parent="1" source="DejExufyzVn6_CYJfOM6-67" target="DejExufyzVn6_CYJfOM6-73" edge="1">
          <mxGeometry relative="1" as="geometry" />
        </mxCell>
        <mxCell id="DejExufyzVn6_CYJfOM6-67" value="DC Motor Driver 3" style="whiteSpace=wrap;html=1;rounded=0;" parent="1" vertex="1">
          <mxGeometry x="1750" y="-330" width="120" height="60" as="geometry" />
        </mxCell>
        <mxCell id="DejExufyzVn6_CYJfOM6-69" value="Linear Actuator 1:&amp;nbsp; 10A" style="whiteSpace=wrap;html=1;rounded=0;" parent="1" vertex="1">
          <mxGeometry x="1950" y="-170" width="120" height="60" as="geometry" />
        </mxCell>
        <mxCell id="DejExufyzVn6_CYJfOM6-71" value="Linear Actuator 2:&amp;nbsp; 10A" style="whiteSpace=wrap;html=1;rounded=0;" parent="1" vertex="1">
          <mxGeometry x="1950" y="-250" width="120" height="60" as="geometry" />
        </mxCell>
        <mxCell id="DejExufyzVn6_CYJfOM6-73" value="DC Motor 1: 20A" style="whiteSpace=wrap;html=1;rounded=0;" parent="1" vertex="1">
          <mxGeometry x="1950" y="-330" width="120" height="60" as="geometry" />
        </mxCell>
        <mxCell id="Zs7K6-w_bu5Q6USDmY5A-28" value="" style="edgeStyle=orthogonalEdgeStyle;rounded=0;orthogonalLoop=1;jettySize=auto;html=1;fontColor=#FF0000;strokeColor=#000000;" edge="1" parent="1" source="Zs7K6-w_bu5Q6USDmY5A-8" target="Zs7K6-w_bu5Q6USDmY5A-27">
          <mxGeometry relative="1" as="geometry" />
        </mxCell>
        <mxCell id="Zs7K6-w_bu5Q6USDmY5A-8" value="DC Motor Driver 2" style="rounded=0;whiteSpace=wrap;html=1;" vertex="1" parent="1">
          <mxGeometry x="1750" y="250" width="120" height="60" as="geometry" />
        </mxCell>
        <mxCell id="Zs7K6-w_bu5Q6USDmY5A-30" value="" style="edgeStyle=orthogonalEdgeStyle;rounded=0;orthogonalLoop=1;jettySize=auto;html=1;fontColor=#FF0000;strokeColor=#000000;" edge="1" parent="1" source="Zs7K6-w_bu5Q6USDmY5A-9" target="Zs7K6-w_bu5Q6USDmY5A-29">
          <mxGeometry relative="1" as="geometry" />
        </mxCell>
        <mxCell id="Zs7K6-w_bu5Q6USDmY5A-9" value="DC Motor Driver 3" style="rounded=0;whiteSpace=wrap;html=1;" vertex="1" parent="1">
          <mxGeometry x="1750" y="340" width="120" height="60" as="geometry" />
        </mxCell>
        <mxCell id="Zs7K6-w_bu5Q6USDmY5A-32" value="" style="edgeStyle=orthogonalEdgeStyle;rounded=0;orthogonalLoop=1;jettySize=auto;html=1;fontColor=#FF0000;strokeColor=#000000;" edge="1" parent="1" source="Zs7K6-w_bu5Q6USDmY5A-10" target="Zs7K6-w_bu5Q6USDmY5A-31">
          <mxGeometry relative="1" as="geometry" />
        </mxCell>
        <mxCell id="Zs7K6-w_bu5Q6USDmY5A-10" value="DC Motor Driver 4" style="rounded=0;whiteSpace=wrap;html=1;" vertex="1" parent="1">
          <mxGeometry x="1750" y="430" width="120" height="60" as="geometry" />
        </mxCell>
        <mxCell id="Zs7K6-w_bu5Q6USDmY5A-19" style="edgeStyle=orthogonalEdgeStyle;rounded=0;orthogonalLoop=1;jettySize=auto;html=1;entryX=0.5;entryY=1;entryDx=0;entryDy=0;fontColor=#FF0000;strokeColor=#FF0000;" edge="1" parent="1" source="Zs7K6-w_bu5Q6USDmY5A-11" target="DejExufyzVn6_CYJfOM6-5">
          <mxGeometry relative="1" as="geometry">
            <Array as="points">
              <mxPoint x="1640" y="145" />
              <mxPoint x="1640" y="165" />
              <mxPoint x="2010" y="165" />
            </Array>
          </mxGeometry>
        </mxCell>
        <mxCell id="Zs7K6-w_bu5Q6USDmY5A-20" style="edgeStyle=orthogonalEdgeStyle;rounded=0;orthogonalLoop=1;jettySize=auto;html=1;entryX=0.5;entryY=1;entryDx=0;entryDy=0;fontColor=#FF0000;strokeColor=#FF0000;" edge="1" parent="1" source="Zs7K6-w_bu5Q6USDmY5A-11" target="DejExufyzVn6_CYJfOM6-54">
          <mxGeometry relative="1" as="geometry">
            <Array as="points">
              <mxPoint x="1640" y="145" />
              <mxPoint x="1640" y="80" />
              <mxPoint x="2010" y="80" />
            </Array>
          </mxGeometry>
        </mxCell>
        <mxCell id="Zs7K6-w_bu5Q6USDmY5A-21" style="edgeStyle=orthogonalEdgeStyle;rounded=0;orthogonalLoop=1;jettySize=auto;html=1;entryX=0.5;entryY=1;entryDx=0;entryDy=0;fontColor=#FF0000;strokeColor=#FF0000;" edge="1" parent="1" source="Zs7K6-w_bu5Q6USDmY5A-11" target="DejExufyzVn6_CYJfOM6-59">
          <mxGeometry relative="1" as="geometry">
            <Array as="points">
              <mxPoint x="1640" y="145" />
              <mxPoint x="1640" />
              <mxPoint x="2010" />
            </Array>
          </mxGeometry>
        </mxCell>
        <mxCell id="Zs7K6-w_bu5Q6USDmY5A-22" style="edgeStyle=orthogonalEdgeStyle;rounded=0;orthogonalLoop=1;jettySize=auto;html=1;entryX=0.5;entryY=1;entryDx=0;entryDy=0;fontColor=#FF0000;strokeColor=#FF0000;" edge="1" parent="1" source="Zs7K6-w_bu5Q6USDmY5A-11" target="DejExufyzVn6_CYJfOM6-69">
          <mxGeometry relative="1" as="geometry">
            <Array as="points">
              <mxPoint x="1640" y="145" />
              <mxPoint x="1640" y="-90" />
              <mxPoint x="2010" y="-90" />
            </Array>
          </mxGeometry>
        </mxCell>
        <mxCell id="Zs7K6-w_bu5Q6USDmY5A-24" style="edgeStyle=orthogonalEdgeStyle;rounded=0;orthogonalLoop=1;jettySize=auto;html=1;entryX=0.5;entryY=1;entryDx=0;entryDy=0;fontColor=#FF0000;strokeColor=#FF0000;" edge="1" parent="1" source="Zs7K6-w_bu5Q6USDmY5A-11" target="DejExufyzVn6_CYJfOM6-71">
          <mxGeometry relative="1" as="geometry">
            <Array as="points">
              <mxPoint x="1640" y="145" />
              <mxPoint x="1640" y="-180" />
              <mxPoint x="2010" y="-180" />
            </Array>
          </mxGeometry>
        </mxCell>
        <mxCell id="Zs7K6-w_bu5Q6USDmY5A-25" style="edgeStyle=orthogonalEdgeStyle;rounded=0;orthogonalLoop=1;jettySize=auto;html=1;entryX=0.5;entryY=1;entryDx=0;entryDy=0;fontColor=#FF0000;strokeColor=#FF0000;" edge="1" parent="1" source="Zs7K6-w_bu5Q6USDmY5A-11" target="DejExufyzVn6_CYJfOM6-73">
          <mxGeometry relative="1" as="geometry">
            <Array as="points">
              <mxPoint x="1640" y="145" />
              <mxPoint x="1640" y="-260" />
              <mxPoint x="2010" y="-260" />
            </Array>
          </mxGeometry>
        </mxCell>
        <mxCell id="Zs7K6-w_bu5Q6USDmY5A-11" value="Electronic Fuse 2" style="rounded=0;whiteSpace=wrap;html=1;fillColor=#f8cecc;strokeColor=#b85450;" vertex="1" parent="1">
          <mxGeometry x="1320" y="115" width="120" height="60" as="geometry" />
        </mxCell>
        <mxCell id="Zs7K6-w_bu5Q6USDmY5A-37" style="edgeStyle=orthogonalEdgeStyle;rounded=0;orthogonalLoop=1;jettySize=auto;html=1;entryX=0.5;entryY=1;entryDx=0;entryDy=0;fontColor=#FF0000;strokeColor=#FF0000;" edge="1" parent="1" source="Zs7K6-w_bu5Q6USDmY5A-16" target="Zs7K6-w_bu5Q6USDmY5A-27">
          <mxGeometry relative="1" as="geometry" />
        </mxCell>
        <mxCell id="Zs7K6-w_bu5Q6USDmY5A-38" style="edgeStyle=orthogonalEdgeStyle;rounded=0;orthogonalLoop=1;jettySize=auto;html=1;entryX=0.5;entryY=1;entryDx=0;entryDy=0;fontColor=#FF0000;strokeColor=#FF0000;" edge="1" parent="1" source="Zs7K6-w_bu5Q6USDmY5A-16" target="Zs7K6-w_bu5Q6USDmY5A-29">
          <mxGeometry relative="1" as="geometry" />
        </mxCell>
        <mxCell id="Zs7K6-w_bu5Q6USDmY5A-39" style="edgeStyle=orthogonalEdgeStyle;rounded=0;orthogonalLoop=1;jettySize=auto;html=1;entryX=0.5;entryY=1;entryDx=0;entryDy=0;fontColor=#FF0000;strokeColor=#FF0000;" edge="1" parent="1" source="Zs7K6-w_bu5Q6USDmY5A-16" target="Zs7K6-w_bu5Q6USDmY5A-31">
          <mxGeometry relative="1" as="geometry" />
        </mxCell>
        <mxCell id="Zs7K6-w_bu5Q6USDmY5A-40" style="edgeStyle=orthogonalEdgeStyle;rounded=0;orthogonalLoop=1;jettySize=auto;html=1;entryX=0.5;entryY=1;entryDx=0;entryDy=0;fontColor=#FF0000;strokeColor=#FF0000;" edge="1" parent="1" source="Zs7K6-w_bu5Q6USDmY5A-16" target="Zs7K6-w_bu5Q6USDmY5A-33">
          <mxGeometry relative="1" as="geometry" />
        </mxCell>
        <mxCell id="Zs7K6-w_bu5Q6USDmY5A-16" value="Electronic Fuse 3" style="rounded=0;whiteSpace=wrap;html=1;fillColor=#f8cecc;strokeColor=#b85450;" vertex="1" parent="1">
          <mxGeometry x="1320" y="180" width="120" height="60" as="geometry" />
        </mxCell>
        <mxCell id="Zs7K6-w_bu5Q6USDmY5A-34" value="" style="edgeStyle=orthogonalEdgeStyle;rounded=0;orthogonalLoop=1;jettySize=auto;html=1;fontColor=#FF0000;strokeColor=#000000;" edge="1" parent="1" source="Zs7K6-w_bu5Q6USDmY5A-26" target="Zs7K6-w_bu5Q6USDmY5A-33">
          <mxGeometry relative="1" as="geometry" />
        </mxCell>
        <mxCell id="Zs7K6-w_bu5Q6USDmY5A-26" value="DC Motor Driver 5" style="rounded=0;whiteSpace=wrap;html=1;" vertex="1" parent="1">
          <mxGeometry x="1750" y="520" width="120" height="60" as="geometry" />
        </mxCell>
        <mxCell id="Zs7K6-w_bu5Q6USDmY5A-27" value="DC Motor 2: 9A" style="whiteSpace=wrap;html=1;rounded=0;" vertex="1" parent="1">
          <mxGeometry x="1950" y="250" width="120" height="60" as="geometry" />
        </mxCell>
        <mxCell id="Zs7K6-w_bu5Q6USDmY5A-29" value="DC Motor 3: 9A" style="whiteSpace=wrap;html=1;rounded=0;" vertex="1" parent="1">
          <mxGeometry x="1950" y="340" width="120" height="60" as="geometry" />
        </mxCell>
        <mxCell id="Zs7K6-w_bu5Q6USDmY5A-31" value="DC Motor 4: 9A" style="whiteSpace=wrap;html=1;rounded=0;" vertex="1" parent="1">
          <mxGeometry x="1950" y="430" width="120" height="60" as="geometry" />
        </mxCell>
        <mxCell id="Zs7K6-w_bu5Q6USDmY5A-33" value="DC Motor 5: 9A" style="whiteSpace=wrap;html=1;rounded=0;" vertex="1" parent="1">
          <mxGeometry x="1950" y="520" width="120" height="60" as="geometry" />
        </mxCell>
        <mxCell id="Zs7K6-w_bu5Q6USDmY5A-44" style="edgeStyle=orthogonalEdgeStyle;rounded=0;orthogonalLoop=1;jettySize=auto;html=1;fontColor=#FF0000;strokeColor=#000000;" edge="1" parent="1" source="Zs7K6-w_bu5Q6USDmY5A-41" target="Zs7K6-w_bu5Q6USDmY5A-9">
          <mxGeometry relative="1" as="geometry" />
        </mxCell>
        <mxCell id="Zs7K6-w_bu5Q6USDmY5A-45" style="edgeStyle=orthogonalEdgeStyle;rounded=0;orthogonalLoop=1;jettySize=auto;html=1;entryX=0;entryY=0.5;entryDx=0;entryDy=0;fontColor=#FF0000;strokeColor=#000000;" edge="1" parent="1" source="Zs7K6-w_bu5Q6USDmY5A-41" target="Zs7K6-w_bu5Q6USDmY5A-10">
          <mxGeometry relative="1" as="geometry" />
        </mxCell>
        <mxCell id="Zs7K6-w_bu5Q6USDmY5A-46" style="edgeStyle=orthogonalEdgeStyle;rounded=0;orthogonalLoop=1;jettySize=auto;html=1;entryX=0;entryY=0.5;entryDx=0;entryDy=0;fontColor=#FF0000;strokeColor=#000000;" edge="1" parent="1" source="Zs7K6-w_bu5Q6USDmY5A-41" target="Zs7K6-w_bu5Q6USDmY5A-26">
          <mxGeometry relative="1" as="geometry" />
        </mxCell>
        <mxCell id="Zs7K6-w_bu5Q6USDmY5A-49" style="edgeStyle=orthogonalEdgeStyle;rounded=0;orthogonalLoop=1;jettySize=auto;html=1;entryX=0;entryY=0.5;entryDx=0;entryDy=0;fontColor=#FF0000;strokeColor=#000000;" edge="1" parent="1" source="Zs7K6-w_bu5Q6USDmY5A-41" target="Zs7K6-w_bu5Q6USDmY5A-8">
          <mxGeometry relative="1" as="geometry" />
        </mxCell>
        <mxCell id="Zs7K6-w_bu5Q6USDmY5A-41" value="Arduino Mega 2" style="whiteSpace=wrap;html=1;rounded=0;" vertex="1" parent="1">
          <mxGeometry x="1490" y="390" width="120" height="60" as="geometry" />
        </mxCell>
      </root>
    </mxGraphModel>
  </diagram>
</mxfile>
